<svg width="30" height="31" viewBox="0 0 30 31" fill="none" xmlns="http://www.w3.org/2000/svg">
<path d="M10.8019 20.5588C10.9988 20.7041 11.2034 20.8449 11.4126 20.9767L11.2156 21.3106L11.034 21.6191L9.94537 23.4671L7.9911 26.7843C6.92237 28.5964 8.25829 30.8607 10.3927 30.8607H4.2719C1.91457 30.8607 0 28.9842 0 26.672V4.05096C0 1.73869 1.91457 -0.139282 4.2719 -0.139282H17.8281C11.3515 -0.139282 6.10249 5.00792 6.10249 11.3592C6.10249 15.1226 7.94683 18.4637 10.8019 20.5588Z" fill="#FF6F4D"/>
<path d="M29.5537 11.3592C29.5537 14.9204 27.9002 18.1013 25.3078 20.2069C25.1368 20.3492 24.9627 20.484 24.7825 20.6127C24.7535 20.6337 24.723 20.6547 24.694 20.6756C24.5474 20.7805 24.3978 20.8808 24.2451 20.9782C22.4038 22.1657 20.1992 22.8561 17.8281 22.8561C15.9746 22.8561 14.1547 22.4098 12.5501 21.6191C12.3531 21.5218 12.1577 21.4199 11.9684 21.3106C11.7791 21.2043 11.5943 21.0935 11.4126 20.9767C11.2035 20.8449 10.9989 20.7041 10.8019 20.5588C7.94687 18.4637 6.10254 15.1226 6.10254 11.3592C6.10254 5.00792 11.3516 -0.139282 17.8281 -0.139282C24.3047 -0.139282 29.5537 5.00792 29.5537 11.3592Z" fill="#FFA453"/>
<path d="M25.2634 30.8607H10.3927C8.25824 30.8607 6.92232 28.5964 7.99106 26.7843L9.94532 23.4672L11.0339 21.6192L11.2156 21.3106L11.4125 20.9767L15.4279 14.1567C16.4967 12.3431 19.1609 12.3431 20.2296 14.1567L23.7916 20.2069L24.0298 20.6128L24.245 20.9782L25.7901 23.6005L27.665 26.7843C28.7307 28.5964 27.3978 30.8607 25.2634 30.8607Z" fill="#FDDFC4"/>
</svg>
