<svg xmlns="http://www.w3.org/2000/svg" viewBox="0 0 512 512" role="img" aria-label="Syriatel"><rect width="512" height="512" rx="96" fill="#e30613"/><ellipse cx="256" cy="252" rx="204" ry="137" fill="#fff"/><path d="M137 278c38-73 82-112 132-116 43-4 78 12 101 42-35-10-66-4-93 15-38 27-62 66-78 116-6 20-20 29-34 23-14-6-18-25-28-80z" fill="#e30613"/><path d="M270 171c16 21 22 43 19 68" fill="none" stroke="#159447" stroke-width="15" stroke-linecap="round"/><circle cx="286" cy="179" r="6" fill="#159447"/><text x="256" y="345" text-anchor="middle" font-family="Arial,sans-serif" font-size="38" font-weight="800" fill="#777">SYRIATEL</text><text x="256" y="398" text-anchor="middle" font-family="Tahoma,Arial,sans-serif" font-size="30" font-weight="700" fill="#777">سيريتل</text></svg>