<svg xmlns="http://www.w3.org/2000/svg" viewBox="0 0 800 800" role="img" aria-label="Binance"><defs><linearGradient id="b" x1="0" y1="0" x2="1" y2="1"><stop stop-color="#161616"/><stop offset="1" stop-color="#080808"/></linearGradient></defs><rect width="800" height="800" rx="36" fill="url(#b)"/><circle cx="400" cy="370" r="255" fill="#f0b90b" opacity=".08"/><g fill="#f0b90b" transform="translate(400 370) scale(1.12)"><path d="M0-220l70 70-35 35-35-35-35 35-35-35z"/><path d="M-105-105l35 35-35 35-35-35z"/><path d="M105-105l35 35-35 35-35-35z"/><path d="M0-70l70 70-70 70-70-70z"/><path d="M-105 35l35 35-35 35-35-35z"/><path d="M105 35l35 35-35 35-35-35z"/><path d="M0 105l35 35-35 35-35-35z"/></g><text x="400" y="700" text-anchor="middle" font-family="Arial,sans-serif" font-size="62" font-weight="900" letter-spacing="2" fill="#f0b90b">BINANCE</text></svg>