<svg xmlns="http://www.w3.org/2000/svg" viewBox="0 0 800 800" role="img" aria-label="Binance"><rect width="800" height="800" fill="#111"/><g fill="#f0b90b" transform="translate(400 365)"><path d="M0-215l72 72-40 40-32-32-32 32-40-40z"/><path d="M-103-112l40 40-40 40-40-40z"/><path d="M103-112l40 40-40 40-40-40z"/><path d="M0-47l72 72-72 72-72-72z"/><path d="M-103 48l40 40-40 40-40-40z"/><path d="M103 48l40 40-40 40-40-40z"/><path d="M0 143l40 40-40 40-40-40z"/></g><text x="400" y="690" text-anchor="middle" font-family="Arial,sans-serif" font-size="54" font-weight="800" fill="#f0b90b">BINANCE</text></svg>